<?xml version="1.0" encoding="utf-8"?>
<!-- Generator: Adobe Illustrator 14.0.0, SVG Export Plug-In . SVG Version: 6.00 Build 43363)  -->
<!DOCTYPE svg PUBLIC "-//W3C//DTD SVG 1.1//EN" "http://www.w3.org/Graphics/SVG/1.1/DTD/svg11.dtd">
<svg version="1.1" id="Layer_1" xmlns="http://www.w3.org/2000/svg" xmlns:xlink="http://www.w3.org/1999/xlink" x="0px" y="0px"
	 width="16px" height="13.969px" viewBox="0 0 16 13.969" enable-background="new 0 0 16 13.969" xml:space="preserve">
<linearGradient id="SVGID_1_" gradientUnits="userSpaceOnUse" x1="92.9014" y1="486.9932" x2="103.1006" y2="497.1924" gradientTransform="matrix(1 0 0 1 -90 -487.0303)">
	<stop  offset="0" style="stop-color:#FCB3B3"/>
	<stop  offset="0.1472" style="stop-color:#FAADAD"/>
	<stop  offset="0.3465" style="stop-color:#F39C9C"/>
	<stop  offset="0.5757" style="stop-color:#E97F7F"/>
	<stop  offset="0.8252" style="stop-color:#DB5858"/>
	<stop  offset="1" style="stop-color:#CF3838"/>
</linearGradient>
<path fill="url(#SVGID_1_)" d="M6.887,13.086c-5.23-4.148-5.389-4.318-5.505-4.443c-1.843-1.975-1.843-5.187,0.002-7.16
	C2.277,0.527,3.466,0,4.729,0C5.958,0,7.115,0.498,8,1.404C8.887,0.498,10.043,0,11.271,0c1.263,0,2.451,0.526,3.345,1.483
	c1.845,1.974,1.845,5.186,0,7.162c-0.116,0.123-0.274,0.293-5.503,4.441L8,13.969L6.887,13.086z"/>
<path fill="none" stroke="#FFDBD9" stroke-width="0.75" stroke-miterlimit="10" d="M7.432,12.079
	C2.439,8.115,2.284,7.95,2.226,7.887c-1.421-1.524-1.421-3.998,0-5.517c0.669-0.717,1.625-1.126,2.622-1.126S6.8,1.653,7.47,2.369
	L8,2.864l0.574-0.538c0.662-0.711,1.588-1.115,2.58-1.115c0.99,0,1.92,0.412,2.62,1.158c1.421,1.52,1.421,3.995,0,5.515
	c-0.063,0.068-0.211,0.227-5.207,4.194L8,12.529L7.432,12.079z"/>
</svg>
